<?xml version="1.0" encoding="UTF-8" standalone="no"?>
<svg
   xmlns:dc="http://purl.org/dc/elements/1.1/"
   xmlns:cc="http://creativecommons.org/ns#"
   xmlns:rdf="http://www.w3.org/1999/02/22-rdf-syntax-ns#"
   xmlns:svg="http://www.w3.org/2000/svg"
   xmlns="http://www.w3.org/2000/svg"
   xmlns:sodipodi="http://sodipodi.sourceforge.net/DTD/sodipodi-0.dtd"
   xmlns:inkscape="http://www.inkscape.org/namespaces/inkscape"
   id="Layer_1"
   style="enable-background:new 0 0 512 512;"
   version="1.1"
   viewBox="0 0 512 512"
   xml:space="preserve"
   inkscape:version="0.91 r13725"
   sodipodi:docname="1492522428_Like.svg"><metadata
     id="metadata13"><rdf:RDF><cc:Work
         rdf:about=""><dc:format>image/svg+xml</dc:format><dc:type
           rdf:resource="http://purl.org/dc/dcmitype/StillImage" /><dc:title></dc:title></cc:Work></rdf:RDF></metadata><defs
     id="defs11" /><sodipodi:namedview
     pagecolor="#ffffff"
     bordercolor="#666666"
     borderopacity="1"
     objecttolerance="10"
     gridtolerance="10"
     guidetolerance="10"
     inkscape:pageopacity="0"
     inkscape:pageshadow="2"
     inkscape:window-width="1680"
     inkscape:window-height="987"
     id="namedview9"
     showgrid="false"
     inkscape:zoom="1.84375"
     inkscape:cx="212.67131"
     inkscape:cy="250.77761"
     inkscape:window-x="-8"
     inkscape:window-y="-8"
     inkscape:window-maximized="1"
     inkscape:current-layer="Layer_1" /><style
     type="text/css"
     id="style3">
	.st0{fill:none;stroke:#000000;stroke-width:10;stroke-linecap:round;stroke-linejoin:round;stroke-miterlimit:10;}
</style><g
     id="g5"><path
       class="st0"
       d="m 90.3,251.4 c 3.698471,-3.58069 10.2,-3.2 16.2,-3.2 13.3,0 26.6,0.1 40,0 7.6,-0.1 15.2,0 22.3,4 4.5,-9.2 9.5,-17.9 17,-24.5 7.9,-7 14.9,-14.9 20,-24 6.1,-10.9 18.7,-30 24.6,-41.1 l 9.8,-25.3 c 0.4,-0.9 0.7,-1.9 1.1,-2.8 1.3,-3.3 7.1,-26.5 7.5,-30.1 0.8,-7.5 0.7,-15.2 2.3,-22.5 1.9,-8.8 8.1,-14.3 16.8,-16.8 2.9,-0.7 5.9,-0.8 9,0 6.9,2.3 8.4,2.5 14.7,5.8 15.3,8.2 22.4,20.7 26.2,40 3.5,18 1.2,35.6 -3.8,52.9 -3.5,12 -6.2,24.3 -9.1,36.5 -0.6,2.6 -0.4,5.4 -0.6,8.5 8.1,-1.5 15.6,-3.1 23.2,-4.3 22.2,-3.4 44.5,-5.4 66.8,-0.4 12.7,2.8 24.1,8.2 32,19 8.8,12.1 10.1,25.4 5.6,39.4 -0.8,2.5 -0.7,4.2 0.9,6.5 11.3,16.5 11.4,35.5 0.1,52 -2.1,3.1 -2.4,5.6 -1.4,9.2 4.7,17.8 0.9,33.8 -11.4,47.5 -3.3,3.7 -4.7,6.9 -4.6,12 0.3,19.7 -9.4,34.1 -26.1,43.8 -14.8,8.7 -31.2,12.6 -48.1,13.3 -30,1.3 -60.1,0.4 -90.1,-1.2 l -36.9,-2.8 c -12.9,-1.2 -25.8,-2.7 -38.7,-3.8 -1.8,-0.2 -4,0.1 -5.6,1 -5.6,3.1 -11.5,4.6 -17.8,4.7 -15.6,0.1 -31.1,0.1 -46.7,0 -16.6,-0.2 -29,-9.5 -33.3,-25.2 -0.9,-3.3 -1.2,-6.9 -1.2,-10.3 -0.1,-41.8 -0.1,-83.7 0,-125.5 0,-6.4 -0.288957,-13.3349 3.6,-17.1 z"
       id="path7"
       inkscape:connector-curvature="0"
       style="fill:none;stroke:#126499;stroke-width:10;stroke-linecap:round;stroke-linejoin:round;stroke-miterlimit:10"
       sodipodi:nodetypes="ssccccccccccccccccccccccccccccccccccccss" /></g></svg>