<?xml version="1.0" encoding="UTF-8" standalone="no"?>
<svg
   xmlns:dc="http://purl.org/dc/elements/1.1/"
   xmlns:cc="http://creativecommons.org/ns#"
   xmlns:rdf="http://www.w3.org/1999/02/22-rdf-syntax-ns#"
   xmlns:svg="http://www.w3.org/2000/svg"
   xmlns="http://www.w3.org/2000/svg"
   xmlns:sodipodi="http://sodipodi.sourceforge.net/DTD/sodipodi-0.dtd"
   xmlns:inkscape="http://www.inkscape.org/namespaces/inkscape"
   id="Layer_1"
   viewBox="0 0 20 20"
   version="1.1"
   inkscape:version="0.91 r13725"
   sodipodi:docname="icon-thumb-up.svg"
   width="20"
   height="20"
   inkscape:export-filename="W:\github\EasyMiner-EasyMiner2\web\images\psd\icon-thumb-up-rate100.png"
   inkscape:export-xdpi="89.999809"
   inkscape:export-ydpi="89.999809">
  <metadata
     id="metadata9">
    <rdf:RDF>
      <cc:Work
         rdf:about="">
        <dc:format>image/svg+xml</dc:format>
        <dc:type
           rdf:resource="http://purl.org/dc/dcmitype/StillImage" />
        <dc:title></dc:title>
      </cc:Work>
    </rdf:RDF>
  </metadata>
  <defs
     id="defs7" />
  <sodipodi:namedview
     pagecolor="#ffffff"
     bordercolor="#666666"
     borderopacity="1"
     objecttolerance="10"
     gridtolerance="10"
     guidetolerance="10"
     inkscape:pageopacity="0"
     inkscape:pageshadow="2"
     inkscape:window-width="1680"
     inkscape:window-height="987"
     id="namedview5"
     showgrid="false"
     showguides="false"
     inkscape:zoom="20.85965"
     inkscape:cx="8.2963955"
     inkscape:cy="6.7778638"
     inkscape:window-x="-8"
     inkscape:window-y="-8"
     inkscape:window-maximized="1"
     inkscape:current-layer="Layer_1" />
  <g
     id="g5"
     transform="translate(0,-492)">
    <path
       d="m 18.720921,501.76676 c -0.194571,-0.18217 -0.536673,-0.16284 -0.852363,-0.16284 -0.699779,0 -1.399559,0.005 -2.104599,0 -0.399874,-0.005 -0.799748,0 -1.173314,0.20354 -0.236767,-0.46813 -0.499843,-0.91082 -0.894455,-1.24666 -0.415658,-0.35619 -0.783963,-0.75817 -1.052299,-1.22122 -0.320952,-0.55464 -0.9839,-1.52653 -1.294329,-2.09135 l -0.515626,-1.28737 c -0.02105,-0.0458 -0.03683,-0.0967 -0.05787,-0.14248 -0.0684,-0.16791 -0.373566,-1.34843 -0.394612,-1.53161 -0.04209,-0.38163 -0.03683,-0.77344 -0.121015,-1.14489 -0.09997,-0.44779 -0.4261811,-0.72765 -0.8839321,-0.85487 -0.152582,-0.0356 -0.310427,-0.0407 -0.473534,0 -0.363043,0.11704 -0.441966,0.12722 -0.77344,0.29513 -0.805009,0.41726 -1.178576,1.05331 -1.378513,2.03537 -0.184153,0.91592 -0.06314,1.81149 0.199937,2.69178 0.184152,0.61061 0.326213,1.2365 0.478796,1.85728 0.03156,0.1323 0.02105,0.27477 0.03156,0.43252 -0.426181,-0.0763 -0.820793,-0.15775 -1.220667,-0.21881 -1.168053,-0.173 -2.341366,-0.27477 -3.51468,-0.0203 -0.668211,0.14247 -1.268022,0.41725 -1.68368,0.9668 -0.463011,0.61571 -0.531411,1.29246 -0.294644,2.00484 0.04209,0.12722 0.03684,0.21371 -0.04735,0.33075 -0.59455,0.83959 -0.599811,1.80639 -0.0053,2.64598 0.110492,0.15775 0.126276,0.28496 0.07366,0.46814 -0.24729,0.90574 -0.04735,1.71989 0.599811,2.41701 0.17363,0.18827 0.24729,0.35109 0.242029,0.61061 -0.01579,1.00241 0.49458,1.73515 1.373251,2.22873 0.778702,0.44269 1.641588,0.64114 2.53078,0.67676 1.578449,0.0662 3.162161,0.0203 4.7406101,-0.061 l 1.941492,-0.14247 c 0.678734,-0.0611 1.357467,-0.13738 2.0362,-0.19336 0.09471,-0.0102 0.21046,0.005 0.294644,0.0509 0.294644,0.15773 0.605072,0.23406 0.936546,0.23915 0.820794,0.005 1.636327,0.005 2.45712,0 0.873409,-0.0102 1.525834,-0.48341 1.752079,-1.28228 0.04735,-0.16792 0.06314,-0.3511 0.06314,-0.52411 0.0053,-2.12696 0.0053,-4.25902 0,-6.38598 0,-0.32566 0.01521,-0.67855 -0.189414,-0.87013 z"
       id="path7"
       stroke-miterlimit="10"
       inkscape:connector-curvature="0"
       style="fill:#2c82bd;stroke:#126499;stroke-width:0.51742405;stroke-linecap:round;stroke-linejoin:round;stroke-miterlimit:10" />
  </g>
</svg>
